<?xml version="1.0" encoding="utf-8"?>
<!-- Generator: Adobe Illustrator 16.0.0, SVG Export Plug-In . SVG Version: 6.00 Build 0)  -->
<!DOCTYPE svg PUBLIC "-//W3C//DTD SVG 1.1//EN" "http://www.w3.org/Graphics/SVG/1.1/DTD/svg11.dtd">
<svg version="1.1" id="Layer_1" xmlns="http://www.w3.org/2000/svg" xmlns:xlink="http://www.w3.org/1999/xlink" x="0px" y="0px"
	 width="1258px" height="942.381px" viewBox="0 0 1258 942.381" enable-background="new 0 0 1258 942.381" xml:space="preserve">
<path fill="#D0C5FF" d="M275.667,471.379l53.978,458.488c0,0-8.352,2.961-16.893,5.514c-8.543,2.553-21.773,7.037-39.427,7
	c-2.601-0.006-25.564-0.41-29.211-12.527l-38.181-333.588L102.44,882.684c-13.956,38.082-36.708,47.941-52.175,53.395
	c-15.465,5.451-46.758,1.619-46.758,1.619L161,516.889l1.594-3.271c9.264-15.564,19.703-26.598,31.027-32.822
	c10.219-5.605,23.221-9.586,35.338-9.791C241.076,470.797,275.667,471.379,275.667,471.379z M270.946,909.799L270.946,909.799
	L270.946,909.799z"/>
<path fill="#D0C5FF" d="M485.918,470.941l-120.904,354.75l-11.978,2.269c-7.657,1.454-16.865,2.188-27.365,2.168
	c-10.717-0.011-19.061-0.757-25.544-2.274l-10.276-2.395l122.181-354.406L485.918,470.941z"/>
<g>
	<path fill="#D0C5FF" d="M872.953,472.615l-54.512,208.199c40.197-41.35,185.809-209.605,185.809-209.605l62.809,1.75
		l-27.666,33.201c-0.543,0.627-58.453,72.128-94.814,115.853l0,0c-43.679,55.082-18.516,70.028-49.783,114.126
		c-26.428,37.277-61.115,62.812-106.475,82.179c-45.365,19.373-103.766,11.565-103.766,11.565l116.154-357.299L872.953,472.615z"/>
</g>
<path fill="#D0C5FF" d="M419.743,829.959l104.43-313.271c4.517-13.485,11.945-24.64,21.969-32.836
	c10.18-8.334,21.907-12.893,33.841-12.893h131.363c23.793,0,35.387,13.106,32,35.133c-0.645,5.463-2.519,12.901-5.615,22.48
	l-4.689,14.529l-128.627-0.015c-5.309,0-10.434-0.103-15.311-0.341l-23.465,71.518l107.993-0.008c0,0,1.992,13.597-5.806,35.379
	c-7.799,21.782-17.188,35.996-17.188,35.996l-108.459-0.481l-23.66,72.81h97.506c23.793,0,35.094,13.546,31.707,35.572
	c-0.645,5.463-2.652,12.977-5.75,22.556l-4.536,13.872H419.743z"/>
<path d="M230.382,471.322c-11.979-0.205-22.998-4.131-29.479-9.737c-7.176-6.224-10.259-17.257-9.146-32.821l0.588-3.272
	L315.383,4.684c0,0,33.848-3.832,45.679,1.619c11.83,5.453,28.011,15.313,16.579,53.394l-87.447,286.419L550.76,12.527
	C562.484,0.41,585.718,0.006,588.322,0c17.678-0.037,27.919,4.447,34.76,7c6.84,2.553,13.218,5.513,13.218,5.513L275.667,471.379
	C275.667,471.379,242.361,471.529,230.382,471.322z M564.223,32.582L564.223,32.582L564.223,32.582z"/>
<path d="M447.144,475.419c-10.566,0-18.783-0.711-25.141-2.159l-9.972-2.207l115.15-354.486l11.873-2.395
	c7.494-1.518,16.336-2.264,27.06-2.274c10.514-0.021,19.232,0.714,25.921,2.168l10.465,2.269L485.918,470.941l-11.925,2.35
	C466.436,474.722,457.646,475.419,447.144,475.419z"/>
<g>
	<path d="M834.621,474.702c-23.435,0-33.912-2.118-33.912-2.118l123.14-358.527c0,0,63.591-7.786,96.042,11.587
		c32.448,19.367,47.113,52.9,48.69,90.179c1.87,44.098-33.257,59.043-26.299,114.125l0,0
		c7.213,43.725,18.791,109.225,18.914,109.853l5.862,33.159c0,0-10.493,2.001-30.684,2.001s-32.125-3.751-32.125-3.751
		s-36.26-158.733-48.891-200.084l-82.406,201.49C872.953,472.615,858.056,474.702,834.621,474.702z"/>
</g>
<path d="M660.074,111.959L555.578,425.377c-4.474,13.485-4.439,24.566,0.12,32.763c4.624,8.334,13.354,12.819,25.287,12.819H712.35
	c23.793,0,44.041-12.96,55.338-34.986c2.997-5.463,6.04-12.828,9.329-22.407l4.977-14.493l-128.648,0.033
	c-5.309,0-10.506,0.111-15.542,0.35l24.209-71.513l107.987,0.011c0,0,11.056-13.596,17.778-35.378s6.809-35.995,6.809-35.995
	l-108.696,0.335l24.962-72.956h97.506c23.793,0,44.041-13.399,55.338-35.426c2.997-5.463,6.04-13.05,9.329-22.629l4.753-13.945
	H660.074z"/>
</svg>
